<svg width="24" height="24" viewBox="0 0 24 24" fill="none" xmlns="http://www.w3.org/2000/svg">
<path d="M19.5584 4.31855C17.7442 2.69712 16.7939 4.69407 15.6781 4.92922C13.3744 5.42056 12.3125 3.59206 13.7163 1.77761C16.3548 -1.63372 23.1363 0.257952 23.8634 4.42033C24.7813 9.67067 20.6634 11.5378 15.9768 11.1272C11.9778 10.7762 11.607 6.81738 15.9984 7.17887C17.3663 7.29117 17.7262 8.01766 19.0616 7.23853C20.1955 6.57522 20.6094 5.25561 19.5584 4.32206V4.31855Z" fill="#1A1A1A"/>
<path d="M4.34665 4.30701C3.01123 5.61258 4.24947 7.53232 5.95564 7.60602C6.45238 7.62708 7.0499 7.23752 7.67621 7.18487C12.3988 6.78478 11.7113 10.7366 8.43931 11.1226C5.61729 11.4525 2.73407 11.1858 1.04589 8.74313C-2.41325 3.74548 3.36398 -1.98569 8.81006 0.674583C11.8769 2.17318 11.0706 5.84421 7.97497 4.9247C7.17588 4.68605 6.03483 2.65399 4.34306 4.30701H4.34665Z" fill="#1A1A1A"/>
<path d="M19.5662 19.6876C17.752 21.309 16.8017 19.312 15.6859 19.0769C13.3822 18.5855 12.3203 20.414 13.7242 22.2285C16.3626 25.6398 23.1441 23.7482 23.8712 19.5858C24.7891 14.3354 20.6712 12.4683 15.9847 12.879C11.9856 13.2299 11.6148 17.1887 16.0062 16.8272C17.3741 16.7149 17.734 15.9885 19.0694 16.7676C20.2033 17.4309 20.6172 18.7505 19.5662 19.684V19.6876Z" fill="#1A1A1A"/>
<path d="M4.34695 19.6956C3.01152 18.39 4.24976 16.4703 5.95593 16.3966C6.45267 16.3755 7.05019 16.7651 7.67651 16.8177C12.3991 17.2178 11.7116 13.266 8.4396 12.88C5.61758 12.5501 2.73436 12.8168 1.04618 15.2595C-2.40576 20.2536 3.37147 25.9848 8.81396 23.3245C11.8807 21.8259 11.0745 18.1549 7.97887 19.0744C7.17977 19.3131 6.03872 21.3451 4.34695 19.6921V19.6956Z" fill="#1A1A1A"/>
</svg>
