<svg width="64" height="64" viewBox="0 0 64 64" fill="none" xmlns="http://www.w3.org/2000/svg">
<g clip-path="url(#clip0_2458_4472)">
<path d="M52.1886 11.5107C47.349 7.18731 44.814 12.5121 41.8372 13.1391C35.6917 14.4492 32.859 9.57362 36.6039 4.73549C43.6425 -4.36058 61.7334 0.683431 63.6731 11.7821C66.1217 25.7818 55.1366 30.7603 42.6342 29.6654C31.966 28.7296 30.9769 18.1737 42.6919 19.1376C46.3408 19.4371 47.301 21.3742 50.8635 19.2967C53.8883 17.528 54.9925 14.0094 52.1886 11.5201V11.5107Z" fill="url(#paint0_linear_2458_4472)"/>
<path d="M11.5978 11.4828C8.03529 14.9641 11.3385 20.0829 15.8901 20.2794C17.2152 20.3356 18.8092 19.2968 20.48 19.1565C33.0784 18.0897 31.2443 28.6269 22.5157 29.6563C14.9874 30.5359 7.29591 29.8247 2.79238 23.3115C-6.43553 9.98555 8.97633 -5.29622 23.5048 1.79722C31.686 5.79312 29.5351 15.5817 21.277 13.1299C19.1453 12.4935 16.1013 7.07518 11.5882 11.4828H11.5978Z" fill="url(#paint0_linear_2458_4472)"/>
<path d="M52.1878 52.4991C47.3481 56.8225 44.8131 51.4978 41.8364 50.8708C35.6908 49.5606 32.8581 54.4362 36.6031 59.2743C43.6416 68.3704 61.7325 63.3264 63.6722 52.2277C66.1208 38.228 55.1357 33.2495 42.6334 34.3444C31.9651 35.2802 30.9761 45.8361 42.691 44.8722C46.3399 44.5728 47.3001 42.6356 50.8626 44.7131C53.8874 46.4818 54.9917 50.0005 52.1878 52.4897V52.4991Z" fill="url(#paint1_linear_2458_4472)"/>
<path d="M11.5948 52.5178C8.03235 49.0366 11.3356 43.9178 15.8871 43.7212C17.2122 43.6651 18.8062 44.7038 20.4771 44.8442C33.0754 45.911 31.2414 35.3738 22.5128 34.3444C14.9845 33.4648 7.29297 34.176 2.78944 40.6892C-6.41926 54.0058 8.99259 69.2875 23.5114 62.1941C31.6927 58.1982 29.5417 48.4096 21.2837 50.8615C19.1519 51.4978 16.108 56.9161 11.5948 52.5085V52.5178Z" fill="url(#paint1_linear_2458_4472)"/>
</g>
<defs>
<linearGradient id="paint0_linear_2458_4472" x1="33.9085" y1="6.73059" x2="35.8954" y2="37.1549" gradientUnits="userSpaceOnUse">
<stop stop-color="white"/>
<stop offset="1" stop-color="#0B0C0E"/>
</linearGradient>
<linearGradient id="paint1_linear_2458_4472" x1="33.9085" y1="36.7306" x2="35.8954" y2="67.1549" gradientUnits="userSpaceOnUse">
<stop stop-color="white"/>
<stop offset="1" stop-color="#0B0C0E"/>
</linearGradient>
<clipPath id="clip0_2458_4472">
<rect width="64" height="64" fill="white"/>
</clipPath>
</defs>
</svg>
