<svg width="24" height="24" viewBox="0 0 24 24" fill="none" xmlns="http://www.w3.org/2000/svg">
<path fill-rule="evenodd" clip-rule="evenodd" d="M9.725 14.838L16.3733 9.71927C16.6992 9.46758 17.165 9.56564 17.3208 9.95539C18.1375 12.0117 17.7725 14.4821 16.1458 16.1782C14.52 17.8743 12.2567 18.2458 10.1883 17.3986L7.92918 18.4897C11.17 20.7995 15.105 20.2284 17.5642 17.6625C19.515 15.6279 20.1192 12.8546 19.5542 10.3538L19.5592 10.3599C18.74 6.68645 19.7608 5.21776 21.8508 2.21528C21.9008 2.14408 21.9508 2.07291 22 2L19.2492 4.86881V4.86011L9.7225 14.8397M8.3525 16.0819C6.02582 13.7643 6.4275 10.1785 8.41168 8.10997C9.87918 6.57968 12.2842 5.95471 14.3833 6.87304L16.6375 5.78805C16.169 5.42903 15.6563 5.13708 15.1133 4.92C13.7481 4.338 12.2482 4.18949 10.8022 4.49314C9.35623 4.79679 8.02873 5.53905 6.98668 6.62655C4.87582 8.82783 4.21168 12.2131 5.35168 15.1019C6.20332 17.2606 4.8075 18.7875 3.40168 20.3291C2.9025 20.8759 2.4025 21.4219 2 22L8.35 16.0845" fill="#1A1A1A"/>
</svg>
