<svg width="24" height="24" viewBox="0 0 24 24" fill="none" xmlns="http://www.w3.org/2000/svg">
<path d="M11.5 5.40604L12.7549 9.03859C12.9991 9.70973 13.5297 10.255 14.195 10.5151L17.9007 11.9832L14.5572 13.3087C13.6392 13.6695 12.9317 14.4077 12.6201 15.3389L11.5084 18.5604L10.3967 15.3305C10.0767 14.4077 9.36924 13.6611 8.45966 13.3003L5.11613 11.9748L8.45966 10.6493C9.37766 10.2886 10.0851 9.55034 10.3967 8.61913L11.5084 5.39765M11.5 2C11.1631 2 10.8347 2.19295 10.6999 2.57047L8.79654 8.0906C8.63653 8.55201 8.2828 8.92114 7.82801 9.1057L2.53059 11.2114C1.82314 11.4966 1.82314 12.495 2.53059 12.7802L7.82801 14.8859C8.2828 15.0705 8.63653 15.4396 8.79654 15.901L10.6999 21.4295C10.8347 21.807 11.1631 22 11.5 22C11.8369 22 12.1653 21.807 12.3001 21.4295L14.2035 15.9094C14.3635 15.448 14.7172 15.0789 15.172 14.8943L20.4694 12.7886C21.1769 12.5034 21.1769 11.505 20.4694 11.2198L14.8098 8.97148C14.5824 8.87919 14.414 8.70302 14.3298 8.47651L12.2917 2.57047C12.1569 2.19295 11.8285 2 11.4916 2H11.5Z" fill="#1A1A1A"/>
</svg>
